<svg width="100" height="10" viewBox="0 0 100 10" fill="none" xmlns="http://www.w3.org/2000/svg">
<g clip-path="url(#clip0_26005_10605)">
<path fill-rule="evenodd" clip-rule="evenodd" d="M18.241 0.369455L10.3876 7.77955C10.1121 8.03944 10.3173 8.46912 10.7168 8.46912H18.4056C18.5311 8.46912 18.6328 8.37775 18.6328 8.26504V0.510156C18.6328 0.3259 18.3824 0.23599 18.241 0.369455ZM8.24523 2.22L0.391843 9.63009C0.250394 9.76356 0 9.67365 0 9.48939V1.73451C0 1.6218 0.10174 1.53043 0.227242 1.53043H7.91603C8.31554 1.53043 8.52067 1.96011 8.24523 2.22ZM49.8157 2.41956C49.5623 2.29063 49.2592 2.17949 48.9065 2.07724C48.2954 1.90386 47.3812 1.73047 46.1491 1.73047C43.6003 1.73047 42.6166 2.63739 42.6166 3.74882C42.6166 4.78021 43.2625 5.57155 46.0199 5.83384C47.6694 5.99833 48.0271 6.05168 48.0271 6.37177C48.0271 6.78077 47.2967 6.89636 46 6.89636C45.2101 6.89636 44.5542 6.78522 44.0971 6.66519C43.8239 6.5985 43.5854 6.51848 43.3767 6.43401L42.393 7.71881C42.6265 7.85663 42.9197 7.98111 43.2724 8.09225C43.8736 8.28342 44.7977 8.46124 46.0994 8.46124C48.4643 8.46124 50.1486 7.90109 50.1486 6.37177C50.1486 5.1092 49.135 4.58016 46.4273 4.30897C45.1902 4.18894 44.7381 4.09113 44.7381 3.74882C44.7381 3.41094 45.2895 3.29536 46.2484 3.29536C47.0086 3.29536 47.6495 3.39761 48.1066 3.49986C48.3749 3.55765 48.6183 3.62878 48.832 3.70436L49.8157 2.41956ZM31.7316 2.83745L27.6774 6.71853H31.7316V8.28342H24.2543V7.35427L28.3034 3.47318H24.3536V1.9083H31.7316V2.83745ZM41.9387 8.28342H39.6831L39.0521 7.25202H35.2762L34.6452 8.28342H32.3896L36.2997 1.9083H38.0286L41.9387 8.28342ZM38.1777 5.82051L37.1642 4.16226L36.1506 5.82051H38.1777ZM60.6538 5.09586C60.6538 6.9586 59.1136 8.46124 55.755 8.46124C52.3964 8.46124 50.8563 6.9586 50.8563 5.09586C50.8563 3.23312 52.3964 1.73047 55.755 1.73047C59.1136 1.73047 60.6538 3.23312 60.6538 5.09586ZM52.9777 5.09586C52.9777 6.00278 53.5739 6.89636 55.755 6.89636C57.9361 6.89636 58.5323 6.00278 58.5323 5.09586C58.5323 4.18894 57.9361 3.29536 55.755 3.29536C53.5739 3.29536 52.9777 4.18894 52.9777 5.09586ZM62.9662 1.9083H60.7106L64.5213 8.28342H66.2503L70.061 1.9083H67.8054L65.3858 6.02945L62.9662 1.9083ZM76.8698 2.07724C77.2225 2.17949 77.5256 2.29063 77.779 2.41956L76.7953 3.70436C76.5816 3.62878 76.3382 3.55765 76.0699 3.49986C75.6128 3.39761 74.9719 3.29536 74.2117 3.29536C73.2529 3.29536 72.7014 3.41094 72.7014 3.74882C72.7014 4.09113 73.1535 4.18894 74.3906 4.30897C77.0983 4.58016 78.1119 5.1092 78.1119 6.37177C78.1119 7.90109 76.4276 8.46124 74.0627 8.46124C72.761 8.46124 71.8369 8.28342 71.2357 8.09225C70.883 7.98111 70.5898 7.85663 70.3563 7.71881L71.3401 6.43401C71.5487 6.51848 71.7872 6.5985 72.0605 6.66519C72.5175 6.78522 73.1734 6.89636 73.9633 6.89636C75.2601 6.89636 75.9904 6.78077 75.9904 6.37177C75.9904 6.05168 75.6327 5.99833 73.9832 5.83384C71.2258 5.57155 70.5799 4.78021 70.5799 3.74882C70.5799 2.63739 71.5636 1.73047 74.1124 1.73047C75.3445 1.73047 76.2587 1.90386 76.8698 2.07724ZM81.1199 4.27785V1.9083H79.0183V8.28342H81.1199V6.30953L81.8999 5.73159L84.553 8.28342H87.1216L83.3507 4.66018L87.072 1.9083H84.3245L81.1199 4.27785ZM89.9806 8.28342H87.879V1.9083H89.9806V8.28342ZM93.2172 1.9083H90.738L94.3152 5.75382V8.28342H96.4217V5.75382L99.9989 1.9083H97.5197L95.3685 4.22895L93.2172 1.9083Z" fill="#414141"/>
</g>
<defs>
<clipPath id="clip0_26005_10605">
<rect width="100" height="10" fill="white"/>
</clipPath>
</defs>
</svg>
