<svg width="49" height="40" viewBox="0 0 49 40" fill="none" xmlns="http://www.w3.org/2000/svg">
<path d="M5.3654 21.1575H43.6852C44.4888 21.1575 45.142 21.843 45.072 22.6484C44.2321 32.2381 35.354 39.7841 24.5266 39.7841C13.6992 39.7841 4.82105 32.2381 3.98119 22.6484C3.90861 21.843 4.56183 21.1575 5.3654 21.1575Z" fill="#FF6633"/>
<path d="M31.4435 6.80845C31.8712 6.80845 32.2963 6.61556 32.5737 6.24542C33.9734 4.39475 36.633 3.24264 39.5128 3.24264C42.3927 3.24264 45.0523 4.39214 46.452 6.24542C46.9264 6.87361 47.8181 6.99351 48.4402 6.51651C49.0649 6.0395 49.1842 5.14284 48.7098 4.51726C46.7553 1.93153 43.3181 0.388428 39.5128 0.388428C35.7076 0.388428 32.2704 1.93153 30.3133 4.51726C29.8389 5.14544 29.9608 6.0395 30.5829 6.51651C30.8421 6.71461 31.1428 6.80845 31.4435 6.80845Z" fill="#414141"/>
<path d="M1.47374 6.80845C1.90145 6.80845 2.32656 6.61556 2.60392 6.24542C4.00369 4.39475 6.66323 3.24264 9.54312 3.24264C12.423 3.24264 15.0825 4.39214 16.4823 6.24542C16.9567 6.87361 17.8484 6.99351 18.4705 6.51651C19.0952 6.0395 19.2144 5.14284 18.7401 4.51726C16.7856 1.93153 13.3484 0.388428 9.54312 0.388428C5.73783 0.388428 2.30064 1.93153 0.343567 4.51726C-0.130798 5.14544 -0.00896454 6.0395 0.613152 6.51651C0.872368 6.71461 1.17305 6.80845 1.47374 6.80845Z" fill="#414141"/>
</svg>
